<?xml version="1.0" standalone="no"?>
<!DOCTYPE svg PUBLIC "-//W3C//DTD SVG 20010904//EN"
 "http://www.w3.org/TR/2001/REC-SVG-20010904/DTD/svg10.dtd">
<svg version="1.0" xmlns="http://www.w3.org/2000/svg"
 width="64.000000pt" height="64.000000pt" viewBox="0 0 64.000000 64.000000"
 preserveAspectRatio="xMidYMid meet">

<g transform="translate(0.000000,64.000000) scale(0.100000,-0.100000)"
fill="#000000" stroke="none">
<path d="M281 549 c-16 -54 2 -100 39 -98 14 1 41 -1 61 -5 30 -6 39 -4 48 11
10 17 10 17 11 0 0 -10 -6 -20 -14 -23 -8 -3 -17 -17 -21 -31 -3 -14 -17 -40
-30 -58 -14 -17 -28 -46 -31 -63 -9 -47 -24 -39 -24 12 0 42 -2 45 -40 60 -51
20 -99 20 -150 0 -53 -21 -64 -43 -66 -136 -2 -65 0 -81 18 -104 44 -55 123
-68 226 -35 39 12 77 17 109 14 34 -4 60 0 80 11 28 14 32 23 44 87 11 64 10
87 -8 207 -12 74 -27 140 -35 148 -13 13 -140 44 -182 44 -18 0 -25 -9 -35
-41z m-44 -364 c19 3 41 9 49 12 25 9 15 -13 -11 -25 -36 -17 -97 -15 -123 4
-34 24 -26 35 15 18 23 -10 49 -13 70 -9z"/>
</g>
</svg>
